<?xml version="1.0" encoding="utf-8"?>
<!-- Generator: Adobe Illustrator 21.0.0, SVG Export Plug-In . SVG Version: 6.00 Build 0)  -->
<svg version="1.1" id="Layer_1" xmlns="http://www.w3.org/2000/svg" xmlns:xlink="http://www.w3.org/1999/xlink" x="0px" y="0px"
	 viewBox="0 0 50 50" style="enable-background:new 0 0 50 50;" xml:space="preserve">
<style type="text/css">
	.st0{fill:#FFFFFF;}
	.st1{display:none;fill:#209839;}
	.st2{display:none;fill:#FA8B28;}
	.st3{display:none;fill:#CBCC15;}
</style>
<path class="st0" d="M25,10.7c7.4,0,13.4,5.6,14.2,12.7H50C49.2,10.4,38.3,0,25,0S0.8,10.4,0,23.4h10.7C11.6,16.3,17.6,10.7,25,10.7
	z M25,39.3c-7.4,0-13.4-5.6-14.2-12.7H0C0.8,39.6,11.7,50,25,50s24.2-10.4,25-23.4H39.2C38.4,33.7,32.4,39.3,25,39.3z"/>
<circle class="st1" cx="25" cy="25" r="14.3"/>
<circle class="st0" cx="25" cy="25" r="6.3"/>
<path class="st2" d="M10.7,25c0,0.5,0,1,0.1,1.6H0c0-0.5,0-1,0-1.6c0-0.5,0-1,0-1.6h10.7C10.7,24,10.7,24.5,10.7,25z"/>
<path class="st3" d="M0,23.4c0,0.5,0,1,0,1.6c0,0.5,0,1,0,1.6h-0.9v-3.1H0z"/>
<path class="st2" d="M50,25c0,0.5,0,1,0,1.6H39.2c0.1-0.5,0.1-1,0.1-1.6c0-0.5,0-1-0.1-1.6H50C50,24,50,24.5,50,25z"/>
<path class="st3" d="M39.2,23.4c0.1,0.5,0.1,1,0.1,1.6c0,0.5,0,1-0.1,1.6H10.8c-0.1-0.5-0.1-1-0.1-1.6c0-0.5,0-1,0.1-1.6H39.2z"/>
<path class="st3" d="M53.3,23.4v3.1H50c0-0.5,0-1,0-1.6c0-0.5,0-1,0-1.6H53.3z"/>
</svg>
